# xmcd
#
# Track frame offsets: 
#        150
#        12700
#        24895
#        34015
#        49695
#        65644
#        77948
#        88657
#        101668
#        114226
#        127307
#        140729
#        156016
#        168854
#        183840
#
# Disc length: 2639 seconds
#
# Revision: 1
# Processed by: cddbd v1.5.2PL0 Copyright (c) Steve Scherf et al.
# Submitted via: ExactAudioCopy v0.99pb4
#
DISCID=c60a4d0f
DTITLE=El Coyote y Su Banda Tierra Santa - Decimo Aniversario
DYEAR=2005
DGENRE=Banda
TTITLE0=Que se te olvido
TTITLE1=El Tamarindo
TTITLE2=Rifare mi suerte
TTITLE3=Te llevaste lo mejor
TTITLE4=Una aventura
TTITLE5=Si por casulidad
TTITLE6=Me dicen el coyote
TTITLE7=La milpa
TTITLE8=Como le hare para olvidarte
TTITLE9=La sota de copas
TTITLE10=Macario leyva
TTITLE11=Reproches al viento
TTITLE12=Laurita garza
TTITLE13=El muchacho alegre
TTITLE14=Te ando siguiendo los pasos
EXTD=
EXTT0=
EXTT1=
EXTT2=
EXTT3=
EXTT4=
EXTT5=
EXTT6=
EXTT7=
EXTT8=
EXTT9=
EXTT10=
EXTT11=
EXTT12=
EXTT13=
EXTT14=
PLAYORDER=
